# xmcd
# 
# Track frame offsets:
#     150
#     21700
#     40320
#     54667
#     83695
#     99150
#     117017
#     141740
#     165712
#     187087
#     203930
#     225670
# 
# Disc length: 3247
# 
# Revision: 10
# Processed by: cddbd v1.5.2PL0 Copyright (c) Steve Scherf et al.
# Submitted via: fre:ac v1.0.27
# 
DISCID=a90cad0c
DTITLE=John Lee Hooker - Chill Out
DYEAR=1995
DGENRE=Blues
TTITLE0=Chill Out (Things Gonna Change)
TTITLE1=Deep Blue Sea
TTITLE2=Kiddio
TTITLE3=Medley -- Serves Me Right To Suffer - Syndicator
TTITLE4=One Bourbon, One Scotch, One Beer
TTITLE5=Tupelo
TTITLE6=Woman On My Mind
TTITLE7=Annie Mae
TTITLE8=Too Young
TTITLE9=Talkin' The Blues
TTITLE10=If You've Never Been In Love
TTITLE11=We'll Meet Again
EXTD=
EXTT0=
EXTT1=
EXTT2=
EXTT3=
EXTT4=
EXTT5=
EXTT6=
EXTT7=
EXTT8=
EXTT9=
EXTT10=
EXTT11=
PLAYORDER=
